<svg xmlns="http://www.w3.org/2000/svg" viewBox="0 0 272.19 260.32">
  <path fill="#ffffff" fill-rule="evenodd" d="M15.53 78.43 136.51 147.93 256.66 78.45 135.68 8.95 15.53 78.43Zm120.99 78.45L0 78.45 135.67 0l136.52 78.43-135.67 78.45Z"/>
  <path fill="#ffffff" fill-rule="evenodd" d="m15.53 130.15 120.98 69.5 120.15-69.48-120.97-69.5-120.16 69.48Zm120.99 78.45L0 130.17 135.67 51.72l136.52 78.43-135.67 78.45Z"/>
  <path fill="#ffffff" fill-rule="evenodd" d="m15.53 181.87 120.98 69.5 120.15-69.48-120.97-69.5-120.16 69.48Zm120.99 78.45L0 181.89l135.67-78.45 136.52 78.43-135.67 78.45Z"/>
</svg>
